<svg width="64" height="64" viewBox="0 0 120 100" fill="none" xmlns="http://www.w3.org/2000/svg">
  <defs>
    <linearGradient id="waveGradient" x1="0%" y1="0%" x2="100%" y2="0%">
      <stop offset="0%" stop-color="#6366f1" stop-opacity="1" />
      <stop offset="50%" stop-color="#6366f1" stop-opacity="0.6" />
      <stop offset="100%" stop-color="#6366f1" stop-opacity="0.2" />
    </linearGradient>
  </defs>
  <rect width="120" height="100" fill="#fff" rx="20"/>
  <g transform="translate(10, 10)">
    <path d="M15 25 C10 15, 20 5, 35 8 C40 3, 50 5, 52 12 C52 20, 45 28, 40 35 C35 45, 25 50, 20 45 C12 40, 10 32, 15 25 Z" stroke="#000" stroke-width="2.5" fill="none" stroke-linecap="round" stroke-linejoin="round"/>
    <path d="M48 12 C55 5, 65 8, 70 15 C75 20, 72 30, 68 35 C70 45, 65 55, 55 58 C45 60, 40 50, 42 40 C45 32, 48 25, 48 15 Z" stroke="#000" stroke-width="2.5" fill="none" stroke-linecap="round" stroke-linejoin="round"/>
    <path d="M40 50 C42 58, 45 65, 42 68 C38 65, 35 58, 37 50" stroke="#000" stroke-width="2" fill="none" stroke-linecap="round"/>
    <path d="M25 20 Q30 18, 35 22 Q40 25, 45 20 Q50 18, 55 25" stroke="#000" stroke-width="1.5" fill="none" opacity="0.7"/>
    <path d="M20 30 Q25 28, 30 32 Q35 35, 40 30 Q45 28, 50 35 Q55 38, 60 32" stroke="#000" stroke-width="1.5" fill="none" opacity="0.6"/>
    <path d="M25 40 Q30 38, 35 42 Q40 45, 45 40 Q50 38, 55 45" stroke="#000" stroke-width="1.5" fill="none" opacity="0.5"/>
    <circle cx="28" cy="22" r="1.5" fill="#000" opacity="0.8" />
    <circle cx="42" cy="18" r="1.5" fill="#000" opacity="0.8" />
    <circle cx="52" cy="28" r="1.5" fill="#000" opacity="0.8" />
    <circle cx="32" cy="35" r="1.5" fill="#000" opacity="0.6" />
    <circle cx="48" cy="32" r="1.5" fill="#000" opacity="0.6" />
  </g>
  <g>
    <path d="M75 35 C82 35, 85 38, 85 42 C85 46, 82 50, 75 50" stroke="#6366f1" stroke-width="3" fill="none" stroke-linecap="round"/>
    <path d="M78 28 C88 28, 92 32, 92 38 C92 44, 88 50, 88 50 C92 50, 96 54, 96 58 C96 62, 92 68, 78 68" stroke="url(#waveGradient)" stroke-width="2.5" fill="none" stroke-linecap="round"/>
    <path d="M82 20 C95 20, 100 25, 100 32 C100 39, 95 48, 95 48 C100 48, 105 53, 105 58 C105 63, 100 72, 105 75 C110 78, 115 82, 110 85" stroke="url(#waveGradient)" stroke-width="2" fill="none" stroke-linecap="round" opacity="0.4"/>
  </g>
  <g opacity="0.3">
    <path d="M25 15 L27 18 L29 12 L31 16" stroke="#6366f1" stroke-width="1" fill="none"/>
    <path d="M50 12 L52 15 L54 9 L56 13" stroke="#6366f1" stroke-width="1" fill="none"/>
    <path d="M35 55 L37 58 L39 52 L41 56" stroke="#6366f1" stroke-width="1" fill="none"/>
  </g>
</svg> 