<svg version="1.1" id="Layer_1" xmlns="http://www.w3.org/2000/svg" xmlns:xlink="http://www.w3.org/1999/xlink" x="0px" y="0px"
	 width="100%" viewBox="0 0 1024 1024" enable-background="new 0 0 1024 1024" xml:space="preserve">
<path fill="#000000" opacity="1.000000" stroke="none" 
	d="
M404.934967,666.004395 
	C402.264954,661.405884 398.852142,660.010254 393.673187,660.109558 
	C367.183716,660.617676 345.132812,638.953125 344.869659,612.306580 
	C344.821808,607.463318 343.731140,604.707031 339.080139,602.311951 
	C308.683075,586.658813 303.048981,546.859314 325.441376,523.942749 
	C327.243591,522.098389 327.318207,520.490967 326.528229,518.167847 
	C320.308685,499.877777 323.678558,483.421692 336.402008,468.922089 
	C337.913757,467.199280 338.908783,465.550385 338.750580,463.168488 
	C337.910706,450.523102 341.648254,439.524902 350.766815,430.536102 
	C352.056366,429.264923 352.353943,427.881378 352.233307,426.044708 
	C350.236633,395.646973 374.472809,372.632874 404.417938,376.572571 
	C408.058624,377.051514 410.105316,375.723175 412.453583,373.155426 
	C425.190765,359.227600 441.091492,354.722504 459.198029,359.218384 
	C476.012146,363.393311 486.592407,374.379669 490.731781,391.251251 
	C491.634857,394.931976 492.073517,398.820496 492.077789,402.614044 
	C492.164886,480.237640 492.225800,557.861389 492.133514,635.484985 
	C492.099884,663.788940 470.109619,685.157043 441.839264,684.171814 
	C427.184509,683.661133 414.924927,677.305664 404.934967,666.004395 
M479.104889,513.456909 
	C479.280396,503.131561 478.746063,492.803986 479.458893,482.475830 
	C479.842773,476.913696 478.658966,476.138489 473.196564,476.667236 
	C462.310547,477.720947 452.729614,474.666382 444.974640,466.833038 
	C443.081451,464.920685 439.819153,462.684387 443.514404,459.430817 
	C448.828339,454.751923 450.666687,454.330322 453.980499,457.699951 
	C459.482330,463.294403 466.564575,464.915100 474.272949,463.559937 
	C477.582306,462.978149 479.518860,461.549408 479.273010,457.537872 
	C478.865875,450.894867 479.046143,444.212677 479.067932,437.547272 
	C479.114532,423.298981 468.439697,414.888153 454.564941,418.472443 
	C452.094482,419.110626 450.587402,418.896301 449.122559,416.662354 
	C444.654846,409.848694 445.825348,407.316681 453.987732,405.652069 
	C462.787048,403.857544 470.736328,406.411224 478.841675,410.187897 
	C479.097321,407.724091 479.446381,405.629303 479.511444,403.525757 
	C479.919220,390.343231 474.690979,380.070648 462.910889,373.931183 
	C450.762970,367.600067 438.581696,368.541779 427.542816,376.573059 
	C416.985168,384.254303 413.011505,394.981537 416.016327,407.809296 
	C417.128754,412.558075 414.261963,413.757782 410.992676,414.803467 
	C407.497406,415.921387 404.802612,415.129669 403.680420,411.103516 
	C402.077301,405.351868 402.168579,399.483398 403.058044,393.751587 
	C403.650604,389.933167 402.460571,388.977783 399.075195,388.950500 
	C386.639038,388.850250 376.716614,393.661804 369.849518,404.108948 
	C366.649841,408.976715 364.439972,414.292267 365.260040,420.622955 
	C370.219910,420.222931 374.693573,418.687744 379.386169,418.876343 
	C386.420166,419.159027 387.871857,421.483704 385.523895,428.090698 
	C384.210144,431.787598 381.535370,431.374176 378.670685,431.395050 
	C366.288208,431.485291 355.997528,439.544678 352.251434,451.980835 
	C349.167206,462.219727 353.291321,472.903717 362.812744,479.341248 
	C367.229584,482.327545 367.792053,485.681305 364.622345,490.616974 
	C361.710968,495.150452 358.770721,491.802338 356.117310,490.380676 
	C351.434845,487.871826 348.030029,483.742584 344.561005,479.751404 
	C335.893799,489.672180 333.629028,504.615875 339.177734,514.224609 
	C340.213928,513.945557 341.309784,513.625793 342.417786,513.355896 
	C352.817596,510.822906 362.227631,513.084839 370.653259,519.470825 
	C372.479279,520.854797 375.052765,522.355469 372.480316,525.501343 
	C368.404907,530.485168 365.706665,531.669189 362.445709,529.412048 
	C353.106720,522.947937 343.484802,523.722534 335.259766,531.600647 
	C321.897278,544.399475 320.964020,567.711304 333.164795,582.145325 
	C346.032196,597.367981 369.671356,599.956604 381.346466,585.263550 
	C384.849579,580.854858 387.815277,585.854004 390.759186,587.211975 
	C393.846252,588.635925 392.710632,590.939880 391.154602,592.966125 
	C383.986816,602.299744 374.317566,606.919739 362.743378,607.334656 
	C358.408600,607.490051 357.059540,608.829224 357.199646,613.219666 
	C357.680115,628.275330 370.841125,644.048523 385.625702,646.559875 
	C387.960266,646.956421 390.507202,647.789307 392.980560,646.034729 
	C392.275360,642.273438 391.440735,638.553284 390.903870,634.790710 
	C390.053101,628.828613 391.882050,625.967773 396.470978,625.654663 
	C401.136444,625.336182 403.879150,628.264282 404.143463,633.768433 
	C404.307556,637.185303 404.192169,640.715515 406.963501,643.334961 
	C411.297119,641.199768 412.101562,640.507324 415.378632,636.185913 
	C418.545715,632.009583 420.750305,631.871643 425.400238,635.079102 
	C429.493744,637.902649 427.624023,640.536621 425.636902,643.481934 
	C422.439056,648.221924 417.721252,651.433899 413.649689,655.148315 
	C422.969238,669.810913 442.060516,675.401733 458.408630,668.568176 
	C472.436035,662.704712 481.873749,646.108643 478.721680,632.708374 
	C478.276245,632.663574 477.779816,632.506409 477.322723,632.583191 
	C455.591827,636.234375 439.459259,626.037842 433.422699,604.746521 
	C432.833496,602.668396 431.816620,601.217651 429.811920,600.319397 
	C423.277618,597.391357 416.891754,594.094116 410.226654,591.512390 
	C406.974945,590.252930 406.243256,588.456604 406.669983,585.468445 
	C407.451447,579.996338 410.599854,577.881470 415.802063,579.930969 
	C421.640869,582.231445 427.292542,585.006897 432.954437,587.543701 
	C435.220764,585.304382 435.641510,582.552185 436.841217,580.212280 
	C441.364502,571.389954 448.326569,565.745361 458.026367,563.405090 
	C461.985687,562.449890 464.812958,563.427185 465.563965,567.543945 
	C466.226074,571.173340 465.641998,574.267029 461.125305,575.642944 
	C449.158203,579.288330 442.875488,590.353210 445.718964,602.095398 
	C448.639008,614.153687 459.943329,622.188477 471.750488,620.597839 
	C477.838928,619.777649 479.059570,618.419189 479.063385,612.244690 
	C479.077118,589.913818 479.074524,567.582886 479.065643,545.252014 
	C479.061951,535.926880 480.350464,537.133545 470.823090,537.113159 
	C455.052063,537.079346 439.876068,534.897034 426.852814,525.032715 
	C423.305145,522.345581 420.070190,519.245605 416.587646,516.245422 
	C415.913727,516.791382 415.311188,517.117737 414.929718,517.614014 
	C411.775604,521.716858 408.511322,525.721863 404.471893,528.999207 
	C401.293915,531.577759 398.292999,531.334412 395.919312,527.919495 
	C393.740417,524.784790 392.613373,521.668518 396.828369,519.005798 
	C400.548706,516.655518 403.220886,513.245483 405.747375,509.678650 
	C408.039612,506.442596 408.558868,503.544952 406.859222,499.582367 
	C402.066437,488.408539 401.146973,476.756836 404.307159,464.893555 
	C405.265167,461.297180 407.607086,459.698639 411.007751,461.104858 
	C414.016479,462.348969 418.161255,463.186157 416.830902,468.238159 
	C412.059357,486.357788 418.068512,500.979797 431.696838,512.906860 
	C442.554352,522.409058 455.702271,524.361267 469.582184,523.933228 
	C479.075836,523.640442 479.082855,523.867615 479.104889,513.456909 
z"/>
<path fill="#000000" opacity="1.000000" stroke="none" 
	d="
M647.018433,503.842865 
	C641.499023,474.769226 628.862488,449.990082 607.340027,430.039856 
	C603.791321,426.750397 600.691162,423.297394 601.185852,418.131622 
	C602.033142,409.283691 611.735596,405.388245 619.383179,410.879028 
	C625.924133,415.575287 631.195190,421.632355 636.252014,427.832458 
	C657.543762,453.937958 668.772461,483.985168 671.460938,517.443054 
	C674.766113,558.574402 664.986389,595.971069 640.078979,629.140808 
	C634.761353,636.222412 628.650574,642.592651 622.079468,648.502136 
	C618.684387,651.555420 614.915222,654.176086 609.941650,652.846863 
	C605.813171,651.743530 602.776855,649.246948 601.735779,644.941467 
	C600.574829,640.140137 602.036682,635.997986 605.659973,632.753845 
	C612.128906,626.961609 618.127380,620.760681 623.284119,613.753784 
	C638.469788,593.119690 646.704590,570.017883 648.967102,544.499023 
	C650.170898,530.921631 649.240784,517.604919 647.018433,503.842865 
z"/>
<path fill="#000000" opacity="1.000000" stroke="none" 
	d="
M647.459167,403.523499 
	C640.623718,395.463318 642.454712,391.501160 651.793762,387.222137 
	C658.776062,384.022919 662.035217,386.700287 666.083130,391.327118 
	C687.700378,416.035675 702.104553,444.549774 709.782593,476.260651 
	C719.822388,517.724976 719.133911,559.150024 706.051453,599.968201 
	C700.082031,618.593262 692.065186,636.345825 679.924194,651.944702 
	C678.927917,653.224731 678.251709,654.863586 676.291687,655.226929 
	C674.947021,653.455444 677.975708,652.411011 676.682495,650.293152 
	C669.107666,648.039062 661.461792,647.989624 654.492188,654.220947 
	C653.877136,651.070374 655.497498,650.064880 656.429504,648.836609 
	C670.187378,630.705017 679.648071,610.346252 686.340698,588.794983 
	C690.733459,574.649902 692.496094,559.840820 693.828064,545.070923 
	C694.425903,538.442017 694.541992,531.770935 695.046692,525.131897 
	C695.366272,520.928894 696.358521,516.928528 699.568665,513.791443 
	C701.902405,511.510895 701.872070,508.470306 702.122498,505.431396 
	C702.991455,494.887909 698.701416,484.705017 700.073792,474.145874 
	C700.180359,473.325409 699.915283,472.423248 700.147888,471.657806 
	C701.910583,465.858154 699.457153,461.827515 694.990173,458.404785 
	C691.828369,455.982208 690.263977,452.772797 689.868408,448.591064 
	C689.227844,441.819489 679.301270,432.411316 672.656555,432.051025 
	C669.480347,431.878784 667.863647,430.058807 666.278320,427.909027 
	C660.252808,419.738129 654.717041,411.191345 647.459167,403.523499 
M681.111633,625.566162 
	C676.324829,625.633606 678.398926,629.425293 677.913391,631.706726 
	C677.641357,632.984924 678.732422,633.975769 680.084961,633.628174 
	C683.009399,632.876526 683.014282,630.451477 682.768921,628.103760 
	C682.690918,627.357544 682.093140,626.665588 681.111633,625.566162 
z"/>
<path fill="#000000" opacity="1.000000" stroke="none" 
	d="
M613.070435,473.031738 
	C634.097412,512.502625 633.664551,551.470642 611.718506,589.963623 
	C603.912292,603.655579 592.727600,614.341797 579.144470,622.426331 
	C576.411377,624.053162 573.608887,625.473816 570.299316,625.543335 
	C565.056458,625.653381 560.786499,622.727112 559.279785,617.889221 
	C557.760132,613.009705 559.423706,608.062134 564.003662,605.382629 
	C572.408203,600.465698 580.017334,594.708740 586.434326,587.281189 
	C619.150269,549.413330 611.312683,481.598053 565.213318,455.848297 
	C559.099670,452.433380 557.288574,446.276581 560.232117,440.578217 
	C562.846863,435.516327 568.914551,433.373749 574.888733,436.184723 
	C588.644409,442.656921 599.121826,453.036591 607.947449,465.199951 
	C609.706055,467.623627 611.248657,470.204071 613.070435,473.031738 
z"/>
<path fill="#000000" opacity="1.000000" stroke="none" 
	d="
M538.080688,503.810608 
	C549.055725,513.600708 552.851868,525.549255 549.022766,539.231140 
	C545.483887,551.876404 536.465332,559.397705 523.584290,561.801636 
	C519.550964,562.554382 515.295532,562.138977 511.140900,562.211060 
	C508.938904,562.249268 507.718292,561.175110 507.718262,558.892578 
	C507.718170,553.747620 507.718262,548.602722 507.718262,543.451721 
	C511.038666,541.942871 514.213623,543.069519 517.302979,542.930115 
	C525.692505,542.551636 531.038757,537.419922 530.978760,529.557556 
	C530.919617,521.812805 525.338379,516.201416 517.310608,516.013611 
	C514.369080,515.944824 511.418396,516.265320 508.145142,516.424133 
	C507.196289,510.661987 507.715729,505.197540 507.758057,499.764038 
	C507.777802,497.228363 509.852875,497.085632 511.712616,496.996582 
	C521.068665,496.548737 529.990723,497.855957 538.080688,503.810608 
z"/>
<path fill="#000000" opacity="1.000000" stroke="none" 
	d="
M547.740234,489.131714 
	C537.194763,482.861969 526.284424,479.218323 514.210938,480.195953 
	C509.172760,480.603912 507.495972,478.566620 507.627014,473.575256 
	C508.046417,457.597290 505.263550,459.489105 521.757446,459.865234 
	C533.164124,460.125305 544.168457,462.801208 553.564941,469.989105 
	C557.116882,472.706146 558.062622,476.415283 556.482910,480.210632 
	C554.866516,484.094055 553.059265,488.311371 547.740234,489.131714 
z"/>
<path fill="#000000" opacity="1.000000" stroke="none" 
	d="
M640.040833,674.235657 
	C639.991821,673.106140 639.791016,672.253540 640.628540,671.618896 
	C643.827942,673.072998 645.264343,676.772461 649.191895,678.147400 
	C644.162659,673.262207 650.095215,667.968750 647.892822,663.034607 
	C647.446411,662.034302 648.470276,661.190979 649.383911,660.725830 
	C650.719055,660.046021 652.029419,660.276794 653.019958,661.368286 
	C654.907593,663.448425 657.090637,665.301025 658.339966,667.898743 
	C658.626343,668.494202 658.963928,669.123962 659.020020,669.760620 
	C659.218567,672.015442 663.436218,671.826477 662.186462,674.717651 
	C661.118225,677.189087 659.013123,678.963318 656.852600,680.521057 
	C651.688232,684.244629 646.586060,683.780029 642.632141,679.345398 
	C641.392761,677.955383 640.507812,676.386780 640.040833,674.235657 
z"/>
<path fill="#000000" opacity="1.000000" stroke="none" 
	d="
M684.248047,454.704102 
	C684.675659,456.546631 684.690308,458.713318 682.695923,457.994110 
	C680.238037,457.107880 679.485474,454.628632 680.655884,452.009796 
	C682.814331,451.666260 683.345825,453.199738 684.248047,454.704102 
z"/>
</svg>