<svg width="64" height="64" viewBox="0 0 120 80" fill="none" xmlns="http://www.w3.org/2000/svg">
  <defs>
    <linearGradient id="cloudGradient" x1="0%" y1="0%" x2="0%" y2="100%">
      <stop offset="0%" stop-color="#e0e7ff" />
      <stop offset="50%" stop-color="#c4b5fd" />
      <stop offset="100%" stop-color="#a78bfa" />
    </linearGradient>
    <radialGradient id="shadowGradient" cx="50%" cy="50%" r="50%">
      <stop offset="0%" stop-color="#a78bfa" stop-opacity="0.3" />
      <stop offset="100%" stop-color="#a78bfa" stop-opacity="0.1" />
    </radialGradient>
  </defs>
  <!-- Cloud shadow/base -->
  <ellipse cx="60" cy="70" rx="45" ry="8" fill="url(#shadowGradient)" />
  <!-- Main cloud body -->
  <g>
    <path
      d="M25 45 C25 35, 35 25, 45 25 C50 20, 60 20, 65 25 C75 20, 85 25, 90 35 C95 30, 105 35, 105 45 C105 50, 100 55, 95 55 L30 55 C25 55, 20 50, 25 45 Z"
      fill="url(#cloudGradient)"
      stroke="none"
    />
    <!-- Cloud highlights for 3D effect -->
    <ellipse cx="40" cy="35" rx="8" ry="6" fill="#f3f4f6" opacity="0.6" />
    <ellipse cx="70" cy="30" rx="6" ry="4" fill="#f3f4f6" opacity="0.4" />
    <ellipse cx="85" cy="40" rx="5" ry="3" fill="#f3f4f6" opacity="0.3" />
    <!-- Eyes -->
    <circle cx="50" cy="40" r="4" fill="#4c1d95" />
    <circle cx="70" cy="40" r="4" fill="#4c1d95" />
    <!-- Eye shine/highlights -->
    <circle cx="52" cy="38" r="1.5" fill="white" opacity="0.8" />
    <circle cx="72" cy="38" r="1.5" fill="white" opacity="0.8" />
    <!-- Happy mouth -->
    <path d="M55 48 Q60 55 65 48" stroke="#4c1d95" stroke-width="3" fill="none" stroke-linecap="round" />
    <!-- Mouth fill for smile -->
    <path d="M56 50 Q60 54 64 50 Q60 52 56 50 Z" fill="#4c1d95" opacity="0.8" />
    <!-- Cheek blush -->
    <ellipse cx="40" cy="45" rx="3" ry="2" fill="#f472b6" opacity="0.3" />
    <ellipse cx="80" cy="45" rx="3" ry="2" fill="#f472b6" opacity="0.3" />
  </g>
</svg> 