<?xml version="1.0" encoding="UTF-8"?>
<svg version="1.1" xmlns="http://www.w3.org/2000/svg" width="2048" height="2048" viewBox="0 0 2048 2048">
<g transform="scale(1.5) translate(-341,-341)">
<path d="M0 0 C675.84 0 1351.68 0 2048 0 C2048 675.84 2048 1351.68 2048 2048 C1372.16 2048 696.32 2048 0 2048 C0 1372.16 0 696.32 0 0 Z " fill="#FEFEFE"/>
<path d="M0 0 C1.98368439 -0.00956684 3.96722748 -0.04068821 5.95068359 -0.07226562 C29.67628084 -0.16707321 51.71945808 8.49944789 68.67724609 25.14648438 C87.50078984 44.35636546 93.44798831 69.06359193 93.28482056 95.15136719 C93.29059623 97.19188249 93.29854696 99.23239258 93.30845678 101.272892 C93.32915473 106.82580472 93.31909314 112.37828279 93.30352569 117.93119621 C93.29214571 123.94085373 93.30970767 129.95043997 93.32342529 135.96008301 C93.34431356 147.03400608 93.34258881 158.1078108 93.32886795 169.18173456 C93.31625232 179.4148315 93.31302422 189.64787832 93.31898117 199.88098145 C93.3193631 200.56177333 93.31974502 201.24256522 93.32013852 201.94398716 C93.32169541 204.70807061 93.32328743 207.47215403 93.32493734 210.23623742 C93.34020627 236.12531558 93.32640652 262.01430668 93.29945285 287.90337139 C93.2757277 310.8659661 93.27785096 333.82842213 93.30175781 356.79101562 C93.32857514 382.63503519 93.33912308 408.47897794 93.32369649 434.32300949 C93.32209309 437.08183541 93.32052888 439.84066135 93.31898117 442.5994873 C93.31858578 443.2786991 93.3181904 443.95791089 93.31778303 444.65770486 C93.31211386 454.88026355 93.31871295 465.10276643 93.33137894 475.32531738 C93.34572056 486.95770562 93.34152729 498.58996199 93.31497522 510.22233582 C93.30188623 516.15084606 93.29660055 522.07907581 93.31322098 528.00758362 C93.32823564 533.44579115 93.319744 538.88346099 93.29333322 544.32162046 C93.28779674 546.27763071 93.29047835 548.2336874 93.30271216 550.18966722 C93.46738079 578.73050224 84.23700784 602.41790601 64.64990234 623.24023438 C64.10978516 623.85640625 63.56966797 624.47257812 63.01318359 625.10742188 C50.19858051 639.11633305 27.90250895 649.26575636 9.15722656 650.46337891 C-20.0909619 651.63565835 -20.0909619 651.63565835 -33.35009766 646.24023438 C-34.33187988 645.85424072 -34.33187988 645.85424072 -35.33349609 645.46044922 C-48.03958602 640.42345537 -58.8532154 634.03960102 -69.35009766 625.24023438 C-70.02814453 624.70914063 -70.70619141 624.17804687 -71.40478516 623.63085938 C-78.67328187 617.7343279 -84.18563978 609.9869212 -89.35009766 602.24023438 C-91.86966464 601.88868091 -91.86966464 601.88868091 -94.81884766 602.08789062 C-96.49914062 602.13393433 -96.49914062 602.13393433 -98.21337891 602.1809082 C-99.41349609 602.22111084 -100.61361328 602.26131348 -101.85009766 602.30273438 C-117.53165889 602.56250681 -131.3746104 600.81535355 -145.35009766 593.24023438 C-146.44580078 592.675625 -147.54150391 592.11101563 -148.67041016 591.52929688 C-171.22750826 579.57553535 -187.71640745 559.86504181 -195.49951172 535.58154297 C-195.93701386 534.15463784 -196.36004013 532.72320935 -196.76806641 531.28759766 C-197.30634464 529.39414076 -197.90197882 527.51724267 -198.50244141 525.64257812 C-200.04608157 519.32074436 -199.55733174 512.69877273 -199.47509766 506.24023438 C-199.46504743 504.87956388 -199.4559252 503.5188862 -199.44775391 502.15820312 C-199.42430586 498.8520279 -199.39148622 495.54622557 -199.35009766 492.24023438 C-200.11056396 492.10230469 -200.87103027 491.964375 -201.65454102 491.82226562 C-212.39028872 489.50417645 -221.99790393 481.97426836 -230.35009766 475.24023438 C-231.22021484 474.56347656 -232.09033203 473.88671875 -232.98681641 473.18945312 C-250.20854257 458.98508725 -262.25877534 435.28091646 -265.35009766 413.24023438 C-266.09022402 399.32585881 -266.7653614 384.61014948 -262.35009766 371.24023438 C-261.99818359 370.16515625 -261.64626953 369.09007812 -261.28369141 367.98242188 C-255.45411485 351.70578237 -246.73208615 339.11683559 -234.35009766 327.24023438 C-234.80646301 325.84375638 -235.26529254 324.44808358 -235.72509766 323.05273438 C-235.98033203 322.27542969 -236.23556641 321.498125 -236.49853516 320.69726562 C-237.06258734 319.06979395 -237.6798182 317.45972402 -238.35009766 315.87304688 C-246.38236481 294.7255935 -243.81835557 269.2248508 -235.03759766 248.80273438 C-229.93713553 237.59372199 -222.76971264 224.18664437 -212.35009766 217.24023438 C-211.9989166 214.89988087 -211.9989166 214.89988087 -212.19775391 212.17382812 C-212.22869141 211.1392749 -212.25962891 210.10472168 -212.29150391 209.03881836 C-212.35144531 207.37508179 -212.35144531 207.37508179 -212.41259766 205.67773438 C-212.7540832 184.23884507 -207.2679004 165.2409992 -192.35009766 149.24023438 C-191.7576123 148.78737061 -191.16512695 148.33450684 -190.5546875 147.86791992 C-187.40337702 145.28079182 -185.57191997 143.47727578 -184.83618164 139.37426758 C-184.768204 135.9528988 -184.89683375 132.59359953 -185.10009766 129.17773438 C-185.17179836 126.74703189 -185.23311572 124.31599939 -185.28369141 121.88476562 C-185.30802246 120.72928223 -185.33235352 119.57379883 -185.35742188 118.38330078 C-185.30684868 96.68065602 -172.6137556 76.86928366 -158.22509766 61.67773438 C-152.21507114 55.78440741 -145.61381271 51.44554309 -138.35009766 47.24023438 C-137.48513672 46.73621094 -136.62017578 46.2321875 -135.72900391 45.71289062 C-128.96547401 42.05902965 -121.79261974 40.05283515 -114.35009766 38.24023438 C-113.41810547 38.01207031 -112.48611328 37.78390625 -111.52587891 37.54882812 C-104.94863509 36.20710792 -98.41450296 36.03941687 -91.72509766 35.99023438 C-90.85425537 35.98088867 -89.98341309 35.97154297 -89.08618164 35.96191406 C-82.97213573 35.99191033 -77.29745666 36.84141809 -71.35009766 38.24023438 C-70.90553223 37.64186768 -70.4609668 37.04350098 -70.00292969 36.42700195 C-56.44490788 18.31703146 -38.29582 6.42633966 -16.35009766 1.24023438 C-15.76301025 1.06516357 -15.17592285 0.89009277 -14.57104492 0.7097168 C-9.81124131 -0.29645033 -4.84634319 0.01407116 0 0 Z M-20.35009766 26.24023438 C-21.49736328 26.71460938 -22.64462891 27.18898438 -23.82666016 27.67773438 C-40.76225551 35.35225253 -52.73524885 48.89417575 -59.35009766 66.24023438 C-61.18780069 71.93815708 -61.66116409 77.27607967 -61.60009766 83.24023438 C-61.60783203 83.995625 -61.61556641 84.75101563 -61.62353516 85.52929688 C-61.60558913 90.75159151 -60.75265452 95.21260746 -59.35009766 100.24023438 C-58.85009766 103.49023438 -58.85009766 103.49023438 -59.35009766 106.24023438 C-64.15643774 110.192114 -67.92811335 111.37461066 -74.03759766 111.30273438 C-75.03146484 111.29371094 -76.02533203 111.2846875 -77.04931641 111.27539062 C-77.80857422 111.26378906 -78.56783203 111.2521875 -79.35009766 111.24023438 C-85.09747298 95.22968882 -85.40657734 76.75590168 -81.35009766 60.24023438 C-100.65117177 56.73094817 -117.46611862 61.66024733 -133.78369141 71.74414062 C-135.76436389 73.14296566 -137.55054468 74.6149539 -139.35009766 76.24023438 C-140.15833984 76.96855469 -140.96658203 77.696875 -141.79931641 78.44726562 C-152.94639722 89.02782813 -161.9140888 103.31693195 -162.44775391 119.13476562 C-162.43615234 120.09769531 -162.42455078 121.060625 -162.41259766 122.05273438 C-162.40357422 123.02855469 -162.39455078 124.004375 -162.38525391 125.00976562 C-162.37365234 125.74582031 -162.36205078 126.481875 -162.35009766 127.24023438 C-161.74423828 127.1190625 -161.13837891 126.99789062 -160.51416016 126.87304688 C-158.73631109 126.51747706 -156.9575846 126.16627931 -155.17822266 125.81835938 C-153.45247754 125.46558275 -151.73148681 125.0866196 -150.02197266 124.66210938 C-139.97492389 122.26995491 -129.19542471 122.02230647 -119.35009766 125.24023438 C-119.43899283 126.90778531 -119.54715999 128.57431042 -119.66259766 130.24023438 C-119.72060547 131.16835938 -119.77861328 132.09648438 -119.83837891 133.05273438 C-120.48470762 137.07872088 -121.83003015 140.45840424 -123.35009766 144.24023438 C-123.90358887 144.25481689 -124.45708008 144.26939941 -125.02734375 144.28442383 C-145.12081845 144.87614634 -159.80438043 148.27182109 -174.35009766 163.24023438 C-184.19721691 174.181478 -190.04837989 187.12524491 -189.63134766 201.94726562 C-188.3909371 216.47040586 -182.19650339 229.45489007 -171.35009766 239.24023438 C-165.38481589 244.08966333 -165.38481589 244.08966333 -158.35009766 246.24023438 C-158.64175301 253.09413528 -159.36944539 260.44487299 -163.35009766 266.24023438 C-166.38945355 267.46219007 -167.9221409 267.37750352 -171.04150391 266.37695312 C-183.51748387 260.07955372 -192.75842516 251.98499829 -200.35009766 240.24023438 C-204.39037272 241.58699273 -205.62830766 244.22502161 -207.78759766 247.67773438 C-208.18865723 248.31517578 -208.5897168 248.95261719 -209.00292969 249.609375 C-217.91177311 264.0703174 -222.45236084 282.70288478 -218.84619141 299.6015625 C-217.61380579 304.24819881 -216.0627137 308.75073376 -214.35009766 313.24023438 C-211.28527393 312.80240241 -208.53620034 312.31183296 -205.63916016 311.19726562 C-188.84398868 306.31030955 -170.83143282 311.25593235 -155.95166016 319.18164062 C-151.44027585 321.6904161 -146.76733449 324.32132959 -144.43212891 329.13085938 C-144.35009766 331.24023438 -144.35009766 331.24023438 -146.04541016 333.45898438 C-146.84720703 334.21179687 -147.64900391 334.96460938 -148.47509766 335.74023438 C-149.30654297 336.52140625 -150.13798828 337.30257813 -150.99462891 338.10742188 C-151.77193359 338.81125 -152.54923828 339.51507812 -153.35009766 340.24023438 C-154.27822266 341.10648438 -155.20634766 341.97273438 -156.16259766 342.86523438 C-158.35009766 344.24023438 -158.35009766 344.24023438 -160.28759766 344.30273438 C-162.68021029 343.07017635 -164.49297456 341.41332199 -166.50634766 339.64648438 C-176.06405565 332.35670709 -185.74551376 331.60023131 -197.35009766 332.24023438 C-210.52432416 334.39961887 -222.02094645 344.88226596 -229.57666016 355.31445312 C-241.04503932 373.11836011 -245.4922265 393.06778125 -241.86523438 414.04443359 C-236.8242419 435.41743835 -224.23400866 453.54163509 -205.66259766 465.36523438 C-190.31119827 474.24286534 -172.30867847 477.31199921 -154.85400391 473.40429688 C-141.81397558 469.36066686 -132.1321523 462.40977162 -124.35009766 451.24023438 C-119.60879557 452.59285809 -116.02721187 454.57377792 -111.97509766 457.36523438 C-110.91548828 458.0896875 -109.85587891 458.81414062 -108.76416016 459.56054688 C-107.96751953 460.11484375 -107.17087891 460.66914062 -106.35009766 461.24023438 C-109.23279884 471.59994176 -118.60064021 479.44465359 -127.35009766 485.24023438 C-131.58914916 487.49254969 -135.91042249 489.41985343 -140.35009766 491.24023438 C-141.10548828 491.55863281 -141.86087891 491.87703125 -142.63916016 492.20507812 C-150.90625365 495.51520919 -159.07734976 496.55408845 -167.91259766 496.86523438 C-168.82589844 496.90390625 -169.73919922 496.94257812 -170.68017578 496.98242188 C-172.9032969 497.0755369 -175.12643378 497.16135603 -177.35009766 497.24023438 C-177.8406781 517.19050583 -174.39668543 535.43694082 -161.35009766 551.24023438 C-160.67205078 552.07941406 -159.99400391 552.91859375 -159.29541016 553.78320312 C-148.08788788 566.96500424 -130.99730479 577.95426804 -113.36572266 579.40332031 C-109.35192677 579.56083847 -105.35916986 579.45957571 -101.35009766 579.24023438 C-101.9426081 575.23611115 -102.81759932 571.38814792 -103.86230469 567.47924805 C-105.59669652 560.81638252 -106.80141356 554.32227267 -106.97509766 547.42773438 C-107.02537109 545.49994141 -107.02537109 545.49994141 -107.07666016 543.53320312 C-106.35009766 540.24023438 -106.35009766 540.24023438 -103.55322266 537.82617188 C-98.69996529 535.42321762 -95.15882822 535.53440087 -90.09619141 536.80664062 C-87.38796523 537.96454054 -86.09906582 538.84529054 -84.35009766 541.24023438 C-83.64165809 545.22632789 -83.52645081 549.0351331 -83.47900391 553.07226562 C-83.3744008 560.3064834 -82.0679413 567.59990734 -77.35009766 573.24023438 C-67.54137279 567.32717328 -59.99126086 560.24874974 -54.35009766 550.24023438 C-47.39481636 550.49315369 -42.59468029 552.59409997 -37.35009766 557.24023438 C-35.91259766 559.11523438 -35.91259766 559.11523438 -35.35009766 561.24023438 C-40.17693788 572.5922475 -49.79634516 581.21431453 -59.61572266 588.19726562 C-62.10404822 590.05640029 -64.2220475 591.98551457 -66.35009766 594.24023438 C-52.38323651 610.53024076 -34.62549046 625.30945553 -12.44482422 627.53125 C1.05863945 628.36860854 13.15834224 627.62208567 25.64990234 622.24023438 C27.29345703 621.53640625 27.29345703 621.53640625 28.97021484 620.81835938 C47.37663396 612.23792339 59.00136768 597.41841161 66.52490234 578.92773438 C69.87471448 567.9477946 69.86056089 557.63920222 69.64990234 546.24023438 C64.96374214 546.8662799 64.96374214 546.8662799 60.32958984 547.78320312 C41.3074573 551.0275027 22.63575634 546.84758279 6.64990234 536.24023438 C3.03392982 533.47680822 -0.17735581 530.49750753 -3.35009766 527.24023438 C-4.04490234 526.57765625 -4.73970703 525.91507813 -5.45556641 525.23242188 C-14.63818252 515.88995364 -21.64006929 501.3978166 -22.55761719 488.27148438 C-23.04844434 485.10704896 -23.04844434 485.10704896 -25.56469727 483.58447266 C-26.53415283 483.16407715 -27.5036084 482.74368164 -28.50244141 482.31054688 C-29.58090332 481.82900146 -30.65936523 481.34745605 -31.77050781 480.85131836 C-32.93114746 480.36091064 -34.09178711 479.87050293 -35.28759766 479.36523438 C-37.05176025 478.58805054 -37.05176025 478.58805054 -38.8515625 477.79516602 C-41.22925341 476.74963699 -43.6110949 475.71349422 -45.99707031 474.68701172 C-48.94439226 473.41528972 -51.8752924 472.11519577 -54.79931641 470.79101562 C-61.58619866 467.72191488 -68.35348761 464.80358037 -75.35009766 462.24023438 C-75.90752798 455.50152111 -75.63375531 450.50948843 -72.22509766 444.60351562 C-69.1480792 442.36626679 -65.94979098 442.70797616 -62.35009766 443.24023438 C-59.48430119 444.10361598 -56.85471663 445.31567513 -54.16259766 446.61523438 C-53.02757812 447.14020508 -53.02757812 447.14020508 -51.86962891 447.67578125 C-49.3540983 448.845748 -46.85137224 450.04010672 -44.35009766 451.24023438 C-42.94123291 451.9136084 -42.94123291 451.9136084 -41.50390625 452.60058594 C-40.5392041 453.06174805 -39.57450195 453.52291016 -38.58056641 453.99804688 C-37.62625732 454.4538916 -36.67194824 454.90973633 -35.6887207 455.37939453 C-33.81634755 456.27701283 -31.94664135 457.18021847 -30.07983398 458.08935547 C-29.2305835 458.50008301 -28.38133301 458.91081055 -27.50634766 459.33398438 C-26.37422852 459.88602539 -26.37422852 459.88602539 -25.21923828 460.44921875 C-23.38139329 461.37014576 -23.38139329 461.37014576 -21.35009766 461.24023438 C-21.13095703 460.42941406 -20.91181641 459.61859375 -20.68603516 458.78320312 C-15.87777146 441.99337175 -6.89206616 427.06071423 8.64990234 418.24023438 C16.74544585 414.00564239 25.31419678 410.16303758 34.64990234 411.24023438 C37.01487674 413.10731942 38.3102095 414.56084868 39.64990234 417.24023438 C40.13478788 423.18008218 38.73057181 427.77847702 36.64990234 433.24023438 C35.57740234 433.11648438 34.50490234 432.99273438 33.39990234 432.86523438 C25.05721987 432.9095318 17.63952565 437.92230365 11.77490234 443.49023438 C2.14971827 453.91751712 -2.10720994 465.2926355 -1.76416016 479.48242188 C-0.61744022 489.88944624 2.81657659 500.18723034 9.64990234 508.24023438 C10.28541016 508.99691406 10.92091797 509.75359375 11.57568359 510.53320312 C19.56420223 519.2519337 29.45511302 524.93402462 41.31005859 525.51367188 C43.11072064 525.55336318 44.91152366 525.58703556 46.71240234 525.61523438 C47.59089844 525.65261719 48.46939453 525.69 49.37451172 525.72851562 C57.80004234 525.83881348 60.99273538 523.84738728 69.64990234 520.24023438 C69.64990234 465.79023437 69.64990234 411.34023437 69.64990234 355.24023438 C44.89990234 354.74523438 44.89990234 354.74523438 19.64990234 354.24023438 C-12.47592618 346.93890971 -33.80557257 336.76653717 -56.35009766 313.24023438 C-60.30934057 314.753545 -61.859427 317.04758524 -64.22509766 320.49023438 C-68.01492973 325.69888878 -72.10820601 330.31202784 -76.66259766 334.86523438 C-77.26120605 335.46883789 -77.85981445 336.07244141 -78.4765625 336.69433594 C-81.96452869 340.12836956 -84.82273435 342.78660506 -89.78759766 343.67773438 C-93.58862002 343.02877934 -94.93101555 341.16859692 -97.35009766 338.24023438 C-100.11712248 333.85116052 -101.45550691 330.3988109 -100.35009766 325.24023438 C-98.33523928 323.50791935 -96.19672957 322.23618648 -93.91650391 320.87304688 C-84.73863086 315.03385215 -73.89926974 302.11670192 -71.35009766 291.24023438 C-72.25022006 287.94300905 -72.25022006 287.94300905 -73.91259766 284.49023438 C-76.37797187 278.80611777 -78.43751171 273.12989955 -80.16259766 267.17773438 C-80.36892822 266.47616211 -80.57525879 265.77458984 -80.7878418 265.05175781 C-85.89110176 247.20855094 -86.24759634 222.88877532 -77.35009766 206.24023438 C-68.76644872 205.25522548 -64.18522815 208.232064 -57.35009766 213.24023438 C-57.93418323 217.11901626 -58.77794879 220.74095985 -59.91259766 224.49023438 C-65.15145163 245.34242163 -59.67365105 267.89800602 -49.21240234 286.234375 C-35.43565806 308.55293445 -13.98005084 323.48397151 11.21240234 330.11523438 C30.26917837 334.58918774 50.44164933 332.24023438 69.64990234 332.24023438 C69.64990234 299.57023437 69.64990234 266.90023437 69.64990234 233.24023438 C66.1489566 233.74036948 62.64780945 234.24056176 59.15380859 234.78710938 C38.91007825 237.40502768 21.01233718 232.13094789 4.64990234 220.24023438 C0.58422449 216.76808614 -3.04216112 213.1276294 -5.35009766 208.24023438 C-5.35009766 207.25023437 -5.35009766 206.26023437 -5.35009766 205.24023438 C-3.50887081 203.54201544 -1.73375257 202.08729826 0.27490234 200.61523438 C1.31904297 199.81859375 2.36318359 199.02195312 3.43896484 198.20117188 C6.7207109 196.1969912 8.81308435 195.2888701 12.64990234 195.24023438 C14.19677734 196.46289062 14.19677734 196.46289062 15.39990234 198.30273438 C19.0392558 203.04807317 23.36303699 205.56207047 28.64990234 208.24023438 C29.46072266 208.65660156 30.27154297 209.07296875 31.10693359 209.50195312 C41.21977553 213.92923416 53.85524221 213.9891812 64.21240234 210.30273438 C67.16695778 209.12467547 67.16695778 209.12467547 69.64990234 207.24023438 C69.77007845 205.36089503 69.82012071 203.4770357 69.84277344 201.59399414 C69.85883636 200.38505997 69.87489929 199.17612579 69.89144897 197.93055725 C69.93585761 192.36199043 69.97745819 186.79355566 70 181.22485352 C70.01327377 178.29256534 70.04099516 175.36098398 70.08203125 172.42895508 C70.13168737 168.88098673 70.15616262 165.33365363 70.16322708 161.78535271 C70.1731115 159.79023011 70.20728693 157.79527477 70.24203491 155.8004303 C70.2166507 144.78023044 67.11744232 137.10208745 59.58740234 129.05273438 C50.42119759 120.47789767 39.99333736 116.66900291 27.51879883 116.75439453 C21.64393809 116.98483667 16.79556357 118.46949372 11.64990234 121.24023438 C11.38435547 120.5415625 11.11880859 119.84289062 10.84521484 119.12304688 C9.11307604 114.94553565 6.98115614 110.99063042 4.89208984 106.98242188 C3.64990234 104.24023438 3.64990234 104.24023438 3.64990234 101.24023438 C16.49494553 94.23384718 31.91889502 92.75872083 46.08276367 96.72949219 C52.82948002 98.86911579 59.16662188 101.73633472 65.39208984 105.10351562 C67.52632908 106.39012917 67.52632908 106.39012917 69.64990234 106.24023438 C69.75051671 102.08176538 69.82216958 97.92398386 69.86962891 93.76464844 C69.88945994 92.35664497 69.91653381 90.94872055 69.95166016 89.54101562 C70.39176014 71.41925142 65.47143576 57.14792074 53.64990234 43.24023438 C53.07755859 42.55960938 52.50521484 41.87898437 51.91552734 41.17773438 C44.27828268 32.82245816 33.54329667 27.0931231 22.64990234 24.24023438 C21.98418213 24.06395508 21.31846191 23.88767578 20.63256836 23.70605469 C7.24046917 20.44234246 -7.64867247 20.75478596 -20.35009766 26.24023438 Z " fill="#111011" transform="translate(888.35009765625,714.759765625)"/>
<path d="M0 0 C2.90381737 2.30858259 5.44749019 4.87543196 8 7.5625 C8.69641602 8.27849365 9.39283203 8.9944873 10.11035156 9.73217773 C15.40999121 15.23769466 20.30758136 20.96928014 25 27 C25.92573745 28.13887627 26.85430534 29.27545559 27.78515625 30.41015625 C77.62922565 91.38042469 109.69375554 169.22728772 116.78955078 247.73242188 C116.93697063 249.32086222 117.09795406 250.90807507 117.26904297 252.49414062 C119.0981896 269.60730339 119.18839499 286.68097593 119.1875 303.875 C119.18840637 305.01691803 119.18931274 306.15883606 119.19024658 307.33535767 C119.18886167 322.76593903 118.67154007 337.77912307 116.54443359 353.08056641 C116.08240794 356.40673676 115.64617232 359.73422559 115.22224426 363.06532288 C110.21795289 402.15039037 99.64459319 439.24178266 83.6875 475.3125 C83.20821045 476.39772949 82.7289209 477.48295898 82.23510742 478.60107422 C78.6812165 486.58976037 74.97015393 494.46731794 70.92529297 502.21875 C70.00941622 503.98187316 69.11589536 505.75655076 68.22265625 507.53125 C56.05376272 531.40564664 40.19187485 553.51562063 23 574 C22.47341797 574.63099609 21.94683594 575.26199219 21.40429688 575.91210938 C1.09170416 600.20164094 1.09170416 600.20164094 -8 602 C-14.3130554 602.54988087 -19.41211687 602.26838447 -25 599 C-29.8211438 594.92662544 -33.57148593 591.30862306 -34.40625 584.86328125 C-34.66856722 574.92801644 -32.79683534 570.06817148 -26.06640625 562.95703125 C-24.72395364 561.60411117 -23.36554732 560.26684742 -21.9921875 558.9453125 C-18.78166316 555.81032991 -15.91109571 552.41080476 -13 549 C-12.19949219 548.08863281 -11.39898438 547.17726563 -10.57421875 546.23828125 C13.05428238 519.1339744 31.20390559 487.57597318 44.96582031 454.46777344 C45.87755468 452.29218067 46.81451246 450.131661 47.7734375 447.9765625 C62.38704735 414.966124 68.79620912 378.62057442 73 343 C73.18224121 341.49324707 73.18224121 341.49324707 73.36816406 339.95605469 C79.34271498 288.68192367 73.36763267 236.60117227 60 187 C59.67636475 185.79827148 59.67636475 185.79827148 59.34619141 184.57226562 C52.6660783 160.02383982 42.95910207 136.42662609 31 114 C30.58395508 113.20948242 30.16791016 112.41896484 29.73925781 111.60449219 C20.41984567 93.96338451 9.18101268 77.77087148 -3 62 C-3.69609375 61.08863281 -4.3921875 60.17726563 -5.109375 59.23828125 C-11.36245779 51.21521429 -18.37405703 43.82870346 -25.40625 36.48828125 C-30.71618508 30.81180215 -34.99288398 25.00292462 -35.5 17 C-35.09734374 10.47956644 -32.40756223 4.91036152 -27.5625 0.5625 C-18.75133553 -6.1481126 -9.35051267 -5.42920294 0 0 Z " fill="#C8C8C8" transform="translate(1311,761)"/>
<path d="M0 0 C9.14282814 -0.49661601 14.13202249 2.23824785 20.89453125 8.14453125 C35.38818706 21.18730023 47.97592104 35.52037847 59.4921875 51.22265625 C60.18054687 52.14908936 60.18054687 52.14908936 60.8828125 53.09423828 C101.5600653 107.8739357 121.00117409 176.01383357 120.75292969 243.73681641 C120.74211374 247.24659142 120.75294558 250.75586441 120.765625 254.265625 C120.77197359 265.14892866 120.56869833 275.51999089 118.4921875 286.22265625 C118.32977117 287.63959874 118.18700287 289.05902989 118.0703125 290.48046875 C115.40901361 321.84577706 105.48747245 354.94788582 91.49609375 383.18554688 C90.39062741 385.42874025 89.33247253 387.69156972 88.2734375 389.95703125 C74.43245799 419.09052157 42.20303505 475.15246702 9.4765625 486.94921875 C1.94647687 487.98682897 -4.5796387 488.29657056 -10.890625 483.6484375 C-15.53045847 479.55776306 -18.12903111 475.33663799 -18.87890625 469.171875 C-19.07765394 459.40985632 -16.88574396 454.67523846 -10.3203125 447.72265625 C-7.5078125 445.22265625 -7.5078125 445.22265625 -5.5078125 445.22265625 C-5.5078125 444.56265625 -5.5078125 443.90265625 -5.5078125 443.22265625 C-4.25 442.0234375 -4.25 442.0234375 -2.3828125 440.53515625 C27.01351309 415.3309123 47.31221199 378.8046165 60.50708008 342.90283203 C61.16971901 341.0999943 61.84426964 339.30149476 62.5300293 337.50732422 C66.73011577 326.36999395 69.10894506 314.86217384 71.4921875 303.22265625 C71.74210449 302.02930664 71.99202148 300.83595703 72.24951172 299.60644531 C75.96521876 281.21209915 76.96752334 263.21741828 76.9921875 244.47265625 C76.99667908 243.42255371 77.00117065 242.37245117 77.00579834 241.29052734 C77.02923011 227.83806099 76.10316023 214.86099156 73.8809967 201.59187317 C73.3399158 198.2947855 72.86430781 194.98913127 72.38949585 191.6819458 C68.5780457 165.8199485 60.02568782 140.63722842 48.4921875 117.22265625 C48.11513672 116.4455127 47.73808594 115.66836914 47.34960938 114.86767578 C33.62054204 86.79974752 13.66082221 57.55073246 -11.3203125 38.22265625 C-16.11397369 34.17871458 -18.83375939 28.80116587 -19.98828125 22.671875 C-20.40458401 15.43720807 -17.81646249 9.93934351 -13.05078125 4.5859375 C-8.87474133 0.74045483 -5.40188683 0.47960677 0 0 Z " fill="#929292" transform="translate(1220.5078125,815.77734375)"/>
<path d="M0 0 C27.23988899 9.14229684 52.89346336 34.98666726 69 58 C69.39703125 58.55800293 69.7940625 59.11600586 70.203125 59.69091797 C81.92382547 76.23806195 91.16839127 93.9159662 98 113 C98.27682617 113.76602539 98.55365234 114.53205078 98.83886719 115.32128906 C102.2860678 125.03083482 104.76071058 134.84335528 106.8125 144.9375 C107.01963623 145.95545654 107.22677246 146.97341309 107.44018555 148.0222168 C112.49352327 174.23440981 112.48672542 204.88259546 107 231 C106.80132324 232.03157227 106.60264648 233.06314453 106.39794922 234.12597656 C103.38935598 249.73460336 99.41677624 264.44646006 93 279 C92.55881836 280.00305176 92.11763672 281.00610352 91.66308594 282.03955078 C83.56725416 300.1758832 74.02613658 316.9268991 61 332 C59.95972656 333.20462891 59.95972656 333.20462891 58.8984375 334.43359375 C43.65896173 351.69243468 20.83218133 375.60687956 -3.09375 379.50390625 C-9.62774521 379.89165597 -13.95223469 378.71051581 -19.15625 374.72265625 C-22.8997477 371.22502387 -25.72114115 367.28794038 -26.16796875 362.01953125 C-26.22865991 355.16142979 -26.09599453 348.92446507 -21.375 343.5625 C-17.77602761 340.24785391 -13.70970052 338.06231778 -9.4375 335.75 C25.15206985 317.01614526 48.66710704 282.40615001 60.265625 245.47851562 C62.05411135 239.44237419 63.40272811 233.337967 64.578125 227.15625 C64.98173407 225.09335922 65.43834357 223.04910747 65.90625 221 C71.86814896 193.0973745 68.75931851 160.9181715 60 134 C59.76974121 133.2889209 59.53948242 132.5778418 59.30224609 131.84521484 C53.47483779 114.17561345 45.1924667 97.87554532 34 83 C33.36707031 82.15566406 32.73414063 81.31132813 32.08203125 80.44140625 C18.59380866 63.05967611 3.15217695 50.50263402 -15.7421875 39.38671875 C-21.057376 36.15403853 -24.43873143 33.18303711 -26 27 C-26.82718629 20.53923975 -26.74239637 14.48869733 -23.4140625 8.75390625 C-17.11170496 0.93689372 -9.7435907 -1.43257117 0 0 Z " fill="#191515" transform="translate(1143,869)"/>
<path d="M0 0 C31.25456453 -0.30052466 31.25456453 -0.30052466 44 2 C44.72380859 2.11827148 45.44761719 2.23654297 46.19335938 2.35839844 C58.96568916 4.46921661 70.33186263 8.4304449 82 14 C82.93996826 14.44714355 82.93996826 14.44714355 83.89892578 14.90332031 C119.29632964 32.07699837 141.30200619 65.07077186 154.09765625 101.08984375 C161.83072608 126.30975491 160.19017047 158.01926194 153 183 C152.71253906 184.12277344 152.42507813 185.24554687 152.12890625 186.40234375 C143.61335335 216.10491821 119.67566726 244.89523644 93.03613281 260.12255859 C89.0641839 262.26391491 85.0176616 264.22581091 80.91992188 266.11376953 C79.12997512 266.94000386 77.35342572 267.79509238 75.578125 268.65234375 C68.77251621 271.79155062 62.00295607 273.97238823 54.75 275.8125 C53.9343457 276.01963623 53.11869141 276.22677246 52.27832031 276.44018555 C40.5190411 279.25657327 28.89037036 279.12550403 16.875 279.0625 C8.521875 279.0315625 8.521875 279.0315625 0 279 C0 266.13 0 253.26 0 240 C4.723125 239.9175 9.44625 239.835 14.3125 239.75 C42.67467404 238.96750339 67.34733521 232.23592694 89 213 C89.78246094 212.31292969 90.56492187 211.62585937 91.37109375 210.91796875 C104.60840488 198.55243894 112.45342888 181.27697025 117 164 C117.17732666 163.36416992 117.35465332 162.72833984 117.53735352 162.07324219 C123.41835333 139.01318554 118.97631796 110.83171791 106.90698242 90.34667969 C106.54580322 89.75790039 106.18462402 89.16912109 105.8125 88.5625 C105.42231689 87.92344727 105.03213379 87.28439453 104.63012695 86.62597656 C89.21192097 61.89989156 66.75997791 48.28559312 39 41 C34.39531279 40.09767663 29.87483277 39.79666972 25.1953125 39.68359375 C24.55263428 39.66494263 23.90995605 39.6462915 23.24780273 39.6270752 C20.87365944 39.55937469 18.49931595 39.49884739 16.125 39.4375 C10.80375 39.293125 5.4825 39.14875 0 39 C0 26.13 0 13.26 0 0 Z " fill="#C7C7C7" transform="translate(1014,918)"/>
<path d="M0 0 C45.75311986 -0.48933818 45.75311986 -0.48933818 64 17 C65.04027344 17.98033203 65.04027344 17.98033203 66.1015625 18.98046875 C78.75969885 32.00515345 84.65507368 49.66485345 84.4050293 67.57592773 C84.17457004 73.72394308 83.17165467 79.22357441 81 85 C80.67128906 85.96035156 80.34257813 86.92070313 80.00390625 87.91015625 C73.61804638 105.03486697 61.09872388 116.61758284 44.87353516 124.20605469 C40.40090117 126.10141639 35.76025307 127.12992353 31 128 C30.24904053 128.17273437 29.49808105 128.34546875 28.72436523 128.5234375 C25.7037627 129.05181963 22.89022402 129.11275972 19.82421875 129.09765625 C18.25933716 129.09390991 18.25933716 129.09390991 16.6628418 129.09008789 C14.69504761 129.07643188 14.69504761 129.07643188 12.6875 129.0625 C8.500625 129.041875 4.31375 129.02125 0 129 C0 116.46 0 103.92 0 91 C12.875 91.3125 12.875 91.3125 16.87060547 91.45043945 C25.47950184 91.55078379 32.45742842 90.25248415 38.90771484 84.21411133 C44.3799366 78.306103 46.54658283 72.58100923 46.4375 64.625 C46.43137695 63.87057617 46.42525391 63.11615234 46.41894531 62.33886719 C46.25650873 56.57361813 45.33543735 52.81785394 42 48 C41.443125 47.113125 40.88625 46.22625 40.3125 45.3125 C35.05168631 40.05168631 28.37627073 36.87940421 20.91796875 36.8671875 C20.15033203 36.86589844 19.38269531 36.86460938 18.59179688 36.86328125 C17.79837891 36.86714844 17.00496094 36.87101562 16.1875 36.875 C15.01477539 36.86919922 15.01477539 36.86919922 13.81835938 36.86328125 C13.04685547 36.86457031 12.27535156 36.86585937 11.48046875 36.8671875 C10.78848389 36.86831543 10.09649902 36.86944336 9.38354492 36.87060547 C6.23775456 37.04137971 3.11875898 37.554463 0 38 C0 25.46 0 12.92 0 0 Z " fill="#181415" transform="translate(1014,993)"/>
<path d="M0 0 C2 1 2 1 2.61622238 2.82462692 C3.24014711 6.36122988 3.15616286 9.91688912 3.16113281 13.49707031 C3.16609772 14.35287186 3.17106262 15.2086734 3.17617798 16.09040833 C3.19077389 18.91965543 3.19759778 21.74884644 3.203125 24.578125 C3.20887913 26.54864503 3.21463683 28.51916505 3.22039795 30.48968506 C3.23090101 34.62219503 3.23674804 38.75468559 3.24023438 42.88720703 C3.24571373 48.17082462 3.26973282 53.45418382 3.29820633 58.73772049 C3.3168731 62.80933368 3.32204049 66.88088518 3.32357025 70.95253754 C3.32658883 72.89970053 3.33459039 74.84686264 3.34775543 76.79398346 C3.36489836 79.52463667 3.36291549 82.25466569 3.35644531 84.98535156 C3.3656601 85.7825209 3.37487488 86.57969025 3.3843689 87.40101624 C3.34388297 92.8829056 2.16735405 96.95961052 0 102 C-0.33 102 -0.66 102 -1 102 C-1.02350867 92.68752812 -1.04110614 83.37506695 -1.05181217 74.06257153 C-1.05695892 69.7351442 -1.06390051 65.40773764 -1.07543945 61.08032227 C-1.12840647 40.6932477 -0.99616083 20.36798203 0 0 Z " fill="#090908" transform="translate(977,1164)"/>
<path d="M0 0 C0.309375 0.639375 0.61875 1.27875 0.9375 1.9375 C1.8345163 3.93610821 1.8345163 3.93610821 3 5 C4.12593575 11.70803973 4.14998971 18.3361288 4.125 25.125 C4.12886719 26.18332031 4.13273438 27.24164062 4.13671875 28.33203125 C4.11971969 41.88028031 4.11971969 41.88028031 2 44 C1.31731862 45.32520503 0.6492959 46.65812182 0 48 C-2.08489227 40.30575474 -2.3007797 33.07202245 -2.25 25.125 C-2.25773438 23.92230469 -2.26546875 22.71960937 -2.2734375 21.48046875 C-2.25742227 14.10545618 -1.61607602 7.19871674 0 0 Z " fill="#1C1C1D" transform="translate(625,1089)"/>
<path d="M0 0 C1.98 0 3.96 0 6 0 C5.76228882 0.78842285 5.76228882 0.78842285 5.51977539 1.59277344 C4.87265174 4.58978574 4.78111912 7.45054208 4.68359375 10.515625 C4.64548584 11.64258789 4.60737793 12.76955078 4.56811523 13.93066406 C4.52501221 15.35604492 4.48190918 16.78142578 4.4375 18.25 C4.293125 22.7875 4.14875 27.325 4 32 C13.9 32 23.8 32 34 32 C34 32.33 34 32.66 34 33 C23.44 33 12.88 33 2 33 C2 33.66 2 34.32 2 35 C1.34 35 0.68 35 0 35 C0 23.45 0 11.9 0 0 Z " fill="#0A0A09" transform="translate(1015,1085)"/>
<path d="M0 0 C1.65 0 3.3 0 5 0 C3.68 0.33 2.36 0.66 1 1 C1 12.55 1 24.1 1 36 C1.66 36 2.32 36 3 36 C3 35.34 3 34.68 3 34 C13.56 34 24.12 34 35 34 C35 34.66 35 35.32 35 36 C27.38768059 38.06794559 20.295241 38.23717544 12.4375 38.125 C8.333125 38.08375 4.22875 38.0425 0 38 C0 25.46 0 12.92 0 0 Z " fill="#2F2F2E" transform="translate(1014,1084)"/>
<path d="M0 0 C0.33 0 0.66 0 1 0 C1 12.87 1 25.74 1 39 C-0.32 38.34 -1.64 37.68 -3 37 C-3.0583721 32.64589022 -3.09372173 28.29188207 -3.125 23.9375 C-3.14175781 22.70837891 -3.15851562 21.47925781 -3.17578125 20.21289062 C-3.20886844 14.07521689 -3.16105944 8.77082909 -1 3 C-0.67 2.01 -0.34 1.02 0 0 Z " fill="#1C1B1C" transform="translate(706,820)"/>
<path d="M0 0 C0.66 0 1.32 0 2 0 C3.2565627 3.7696881 3.18175362 7.31717743 3.203125 11.24609375 C3.20882507 12.05361588 3.21452515 12.861138 3.22039795 13.69313049 C3.22983834 15.40030612 3.23637812 17.10749989 3.24023438 18.81469727 C3.2499509 21.42431375 3.2809869 24.03314607 3.3125 26.64257812 C3.31902933 28.30207866 3.32428007 29.96158482 3.328125 31.62109375 C3.3404718 32.40036728 3.3528186 33.17964081 3.36553955 33.98252869 C3.34588484 38.76854941 3.01561424 39.97918102 0 44 C0 29.48 0 14.96 0 0 Z " fill="#0D0B09" transform="translate(1249,1027)"/>
<path d="M0 0 C0.33 0 0.66 0 1 0 C1.19645093 3.12450532 1.38063489 6.24961445 1.5625 9.375 C1.61857422 10.26445313 1.67464844 11.15390625 1.73242188 12.0703125 C1.78076172 12.92109375 1.82910156 13.771875 1.87890625 14.6484375 C1.9260376 15.43395996 1.97316895 16.21948242 2.02172852 17.02880859 C2 19 2 19 1 21 C1.66 21 2.32 21 3 21 C3 22.65 3 24.3 3 26 C-1.08267885 22.2396379 -3.69887626 19.51097471 -4.18359375 13.859375 C-4.3066426 9.48752157 -4.1401235 5.92355976 -2 2 C-1.34 1.34 -0.68 0.68 0 0 Z " fill="#0F0D0C" transform="translate(1121,1217)"/>
<path d="M0 0 C0.33 0 0.66 0 1 0 C1.05429278 2.70860665 1.09381211 5.41610901 1.125 8.125 C1.15013672 9.26582031 1.15013672 9.26582031 1.17578125 10.4296875 C1.21546246 15.03270731 0.75907577 18.66464004 -1 23 C-1.33 23 -1.66 23 -2 23 C-2.33 28.61 -2.66 34.22 -3 40 C-3.33 40 -3.66 40 -4 40 C-4.05875981 35.87506128 -4.09384938 31.75023232 -4.125 27.625 C-4.14175781 26.46871094 -4.15851562 25.31242188 -4.17578125 24.12109375 C-4.22329499 15.71116161 -4.06762863 7.54379629 0 0 Z " fill="#202020" transform="translate(808,928)"/>
<path d="M0 0 C2.24658203 -0.34057617 2.24658203 -0.34057617 5.0078125 -0.29296875 C5.99394531 -0.28330078 6.98007812 -0.27363281 7.99609375 -0.26367188 C9.02863281 -0.23853516 10.06117188 -0.21339844 11.125 -0.1875 C12.68541016 -0.16719727 12.68541016 -0.16719727 14.27734375 -0.14648438 C16.85207627 -0.11105228 19.4257833 -0.06165221 22 0 C22 0.66 22 1.32 22 2 C20.99839844 2.13277344 19.99679687 2.26554688 18.96484375 2.40234375 C17.62239346 2.58071127 16.27994567 2.7590977 14.9375 2.9375 C13.95233398 3.06801758 13.95233398 3.06801758 12.94726562 3.20117188 C11.9659668 3.33168945 11.9659668 3.33168945 10.96484375 3.46484375 C10.3085498 3.54976074 9.65225586 3.63467773 8.97607422 3.72216797 C7.01966485 3.99723516 5.07378011 4.34403726 3.12890625 4.69140625 C2.09636719 4.79324219 1.06382812 4.89507813 0 5 C-0.66 4.34 -1.32 3.68 -2 3 C-1.34 2.01 -0.68 1.02 0 0 Z " fill="#0C0C0D" transform="translate(903,829)"/>
<path d="M0 0 C3.00024947 -0.05444001 5.99949039 -0.0938836 9 -0.125 C9.83917969 -0.14175781 10.67835938 -0.15851562 11.54296875 -0.17578125 C17.05254877 -0.21849117 21.71048292 0.44497993 27 2 C26.01 3.485 26.01 3.485 25 5 C22.03471821 5.0562279 19.31149974 4.95683804 16.375 4.6875 C15.57320312 4.62626953 14.77140625 4.56503906 13.9453125 4.50195312 C11.96241876 4.34851492 9.98101481 4.17604307 8 4 C8.66 3.34 9.32 2.68 10 2 C6.7 1.67 3.4 1.34 0 1 C0 0.67 0 0.34 0 0 Z " fill="#303030" transform="translate(909,809)"/>
<path d="M0 0 C0.33 0 0.66 0 1 0 C1 10.23 1 20.46 1 31 C0.34 30.01 -0.32 29.02 -1 28 C-1.66 28.33 -2.32 28.66 -3 29 C-3.33 26.69 -3.66 24.38 -4 22 C-3.01 22.33 -2.02 22.66 -1 23 C-1.00523682 22.37432129 -1.01047363 21.74864258 -1.01586914 21.10400391 C-1.03661618 18.27767943 -1.04965286 15.45137095 -1.0625 12.625 C-1.07087891 11.64015625 -1.07925781 10.6553125 -1.08789062 9.640625 C-1.09111328 8.69960937 -1.09433594 7.75859375 -1.09765625 6.7890625 C-1.10289307 5.91975098 -1.10812988 5.05043945 -1.11352539 4.15478516 C-1 2 -1 2 0 0 Z " fill="#070706" transform="translate(629,1109)"/>
<path d="M0 0 C1.2375 0.144375 2.475 0.28875 3.75 0.4375 C9.49002931 1.07833262 15.24293318 1.5421622 21 2 C20.67 2.66 20.34 3.32 20 4 C12.35748537 5.46971435 4.6665898 4.98096129 -3 4 C-3 3.67 -3 3.34 -3 3 C-1.35 3 0.3 3 2 3 C1.34 2.67 0.68 2.34 0 2 C0 1.34 0 0.68 0 0 Z " fill="#0A0A0A" transform="translate(919,1239)"/>
<path d="M0 0 C0 0.33 0 0.66 0 1 C-0.73637695 0.98952637 -1.47275391 0.97905273 -2.23144531 0.96826172 C-5.57092876 0.92666298 -8.91035765 0.90066136 -12.25 0.875 C-13.40886719 0.85824219 -14.56773437 0.84148438 -15.76171875 0.82421875 C-16.87675781 0.81777344 -17.99179687 0.81132813 -19.140625 0.8046875 C-20.16704102 0.79421387 -21.19345703 0.78374023 -22.25097656 0.77294922 C-25.05767482 1.00476355 -26.57805922 1.64256235 -29 3 C-31.796875 3.4140625 -31.796875 3.4140625 -34.75 3.625 C-35.73484375 3.69976563 -36.7196875 3.77453125 -37.734375 3.8515625 C-38.48203125 3.90054688 -39.2296875 3.94953125 -40 4 C-38 1 -38 1 -35.91796875 0.26953125 C-24.78796248 -1.59343117 -11.06723267 -2.88810874 0 0 Z " fill="#494949" transform="translate(812,752)"/>
<path d="M0 0 C0.68513672 0.02707031 1.37027344 0.05414062 2.07617188 0.08203125 C4.06640625 0.203125 4.06640625 0.203125 7.4375 0.75 C8.0975 1.74 8.7575 2.73 9.4375 3.75 C1.8475 3.75 -5.7425 3.75 -13.5625 3.75 C-9.14860355 -0.66389645 -5.87736769 -0.36698795 0 0 Z " fill="#171818" transform="translate(785.5625,1313.25)"/>
<path d="M0 0 C0.74958984 0.00451172 1.49917969 0.00902344 2.27148438 0.01367188 C4.11852383 0.02543646 5.96552213 0.04337135 7.8125 0.0625 C8.1425 1.0525 8.4725 2.0425 8.8125 3.0625 C1.8825 3.0625 -5.0475 3.0625 -12.1875 3.0625 C-9.97894074 -1.35461851 -4.30476406 -0.04887505 0 0 Z " fill="#070605" transform="translate(795.1875,751.9375)"/>
<path d="M0 0 C3.58513106 1.62184501 6.58992323 3.79256239 9.75 6.125 C11.22726562 7.21167969 11.22726562 7.21167969 12.734375 8.3203125 C13.48203125 8.87460938 14.2296875 9.42890625 15 10 C12 11 12 11 9 11 C9 10.34 9 9.68 9 9 C7.35 9.33 5.7 9.66 4 10 C2.27735506 6.70450534 0.70554068 3.66881155 0 0 Z " fill="#161717" transform="translate(833,1321)"/>
<path d="M0 0 C3.45826342 -0.05789006 6.91640293 -0.09355821 10.375 -0.125 C11.35984375 -0.14175781 12.3446875 -0.15851563 13.359375 -0.17578125 C14.77089844 -0.18544922 14.77089844 -0.18544922 16.2109375 -0.1953125 C17.51490479 -0.21102295 17.51490479 -0.21102295 18.84521484 -0.22705078 C21 0 21 0 23 2 C5.49644381 3.83214794 5.49644381 3.83214794 0 2 C0 1.34 0 0.68 0 0 Z " fill="#070606" transform="translate(921,1260)"/>
<path d="M0 0 C-0.33 1.32 -0.66 2.64 -1 4 C-4.66666667 4 -8.33333333 4 -12 4 C-13.2065625 4.7734375 -13.2065625 4.7734375 -14.4375 5.5625 C-17 7 -17 7 -19.16015625 6.58984375 C-19.76730469 6.39519531 -20.37445312 6.20054687 -21 6 C-19.60922699 5.17886823 -18.21211107 4.36847505 -16.8125 3.5625 C-16.03519531 3.11003906 -15.25789062 2.65757812 -14.45703125 2.19140625 C-9.69361549 -0.11835815 -5.23314592 -0.1026107 0 0 Z " fill="#101010" transform="translate(912,810)"/>
<path d="M0 0 C2.31 0 4.62 0 7 0 C7 0.99 7 1.98 7 3 C4.05868109 3.98043964 2.17498335 4.11621202 -0.88671875 4.09765625 C-1.82451172 4.09443359 -2.76230469 4.09121094 -3.72851562 4.08789062 C-4.70498047 4.07951172 -5.68144531 4.07113281 -6.6875 4.0625 C-8.16959961 4.05573242 -8.16959961 4.05573242 -9.68164062 4.04882812 C-12.12115474 4.03704303 -14.56054689 4.02059011 -17 4 C-17 3.67 -17 3.34 -17 3 C-8.585 2.01 -8.585 2.01 0 1 C0 0.67 0 0.34 0 0 Z " fill="#252524" transform="translate(942,1260)"/>
<path d="M0 0 C0.66 1.32 1.32 2.64 2 4 C1.071875 4.3403125 1.071875 4.3403125 0.125 4.6875 C-2.6365449 6.39316009 -3.01516195 7.96972909 -4 11 C-5.39789678 13.79579355 -7.2628997 14.59807058 -10 16 C-10.66 15.67 -11.32 15.34 -12 15 C-8.04 10.05 -4.08 5.1 0 0 Z " fill="#1F1D1E" transform="translate(1181,1161)"/>
<path d="M0 0 C-1.45546502 3.39608504 -3.40860299 5.40860299 -6 8 C-6.309375 8.721875 -6.61875 9.44375 -6.9375 10.1875 C-8 12 -8 12 -10.625 12.75 C-11.40875 12.8325 -12.1925 12.915 -13 13 C-3.61290323 0 -3.61290323 0 0 0 Z " fill="#151516" transform="translate(703,859)"/>
<path d="M0 0 C2.0625 0.9375 2.0625 0.9375 4 3 C4.16139685 6.08880186 3.84217458 9.02273494 3 12 C2.01 12.495 2.01 12.495 1 13 C0.63901937 11.02206479 0.28638652 9.04260427 -0.0625 7.0625 C-0.25972656 5.96035156 -0.45695312 4.85820313 -0.66015625 3.72265625 C-0.77230469 2.82417969 -0.88445312 1.92570312 -1 1 C-0.67 0.67 -0.34 0.34 0 0 Z " fill="#0B0A09" transform="translate(1090,1033)"/>
<path d="M0 0 C5.5952381 0.5952381 5.5952381 0.5952381 8 3 C-0.415 3.495 -0.415 3.495 -9 4 C-9 3.01 -9 2.02 -9 1 C-7.700625 1.020625 -6.40125 1.04125 -5.0625 1.0625 C-3.70834367 1.08399454 -2.35243917 1.07148199 -1 1 C-0.67 0.67 -0.34 0.34 0 0 Z " fill="#090909" transform="translate(1028,1025)"/>
<path d="M0 0 C3.3 0 6.6 0 10 0 C8.02 0.99 8.02 0.99 6 2 C8.64 2.33 11.28 2.66 14 3 C14 3.33 14 3.66 14 4 C9.05 4 4.1 4 -1 4 C-0.67 2.68 -0.34 1.36 0 0 Z " fill="#070707" transform="translate(912,810)"/>
<path d="M0 0 C1.95803507 -0.05389087 3.91648909 -0.09274217 5.875 -0.125 C7.51082031 -0.15980469 7.51082031 -0.15980469 9.1796875 -0.1953125 C12 0 12 0 14 2 C13.34 2.66 12.68 3.32 12 4 C9.8359375 3.9765625 9.8359375 3.9765625 7.375 3.625 C6.55773437 3.51414062 5.74046875 3.40328125 4.8984375 3.2890625 C4.27195312 3.19367188 3.64546875 3.09828125 3 3 C3 2.34 3 1.68 3 1 C2.01 0.67 1.02 0.34 0 0 Z " fill="#080807" transform="translate(764,1312)"/>
<path d="M0 0 C0.66 0.66 1.32 1.32 2 2 C1.72806952 7.90925849 0.23973255 12.76026745 -4 17 C-3.45018084 10.95198929 -2.09570426 5.69398894 0 0 Z " fill="#29292A" transform="translate(681,888)"/>
<path d="M0 0 C-0.99 1.485 -0.99 1.485 -2 3 C-2.66 3 -3.32 3 -4 3 C-4 3.66 -4 4.32 -4 5 C-6.64 4.67 -9.28 4.34 -12 4 C-4.75 -1.69642857 -4.75 -1.69642857 0 0 Z " fill="#1A1819" transform="translate(862,721)"/>
<path d="M0 0 C5.61 0.33 11.22 0.66 17 1 C14 4 14 4 11.87890625 4.36328125 C11.11449219 4.34652344 10.35007812 4.32976563 9.5625 4.3125 C8.80066406 4.30863281 8.03882813 4.30476562 7.25390625 4.30078125 C4.76581952 3.96874888 3.12606327 3.32236463 1 2 C0.67 1.34 0.34 0.68 0 0 Z " fill="#2A2929" transform="translate(926,926)"/>
<path d="M0 0 C0 0.66 0 1.32 0 2 C-0.99 2 -1.98 2 -3 2 C-3 2.99 -3 3.98 -3 5 C-3.99 5.66 -4.98 6.32 -6 7 C-7.19232613 9.05003955 -7.19232613 9.05003955 -8 11 C-8.66 11 -9.32 11 -10 11 C-10.99 11.495 -10.99 11.495 -12 12 C-10.82763323 7.16398706 -5.40844892 0 0 0 Z " fill="#211F20" transform="translate(1130,1208)"/>
<path d="M0 0 C-1.44077046 3.36179774 -3.24750021 5.59156268 -6 8 C-6.66 8 -7.32 8 -8 8 C-8.33 9.32 -8.66 10.64 -9 12 C-9.66 12 -10.32 12 -11 12 C-9.31234256 7.07766579 -6.01102545 0 0 0 Z " fill="#211F1F" transform="translate(1129,871)"/>
<path d="M0 0 C2.05078125 0.03255208 4.1015625 0.06510417 6.15234375 0.09765625 C5.16234375 1.58265625 5.16234375 1.58265625 4.15234375 3.09765625 C2.27294922 3.43823242 2.27294922 3.43823242 0.01953125 3.390625 C-0.78613281 3.38095703 -1.59179688 3.37128906 -2.421875 3.36132812 C-3.26363281 3.33619141 -4.10539062 3.31105469 -4.97265625 3.28515625 C-5.82214844 3.27162109 -6.67164063 3.25808594 -7.546875 3.24414062 C-9.64740462 3.20873844 -11.74760918 3.15493026 -13.84765625 3.09765625 C-13.84765625 2.76765625 -13.84765625 2.43765625 -13.84765625 2.09765625 C-13.06519531 2.03707031 -12.28273438 1.97648437 -11.4765625 1.9140625 C-10.46464844 1.83027344 -9.45273438 1.74648437 -8.41015625 1.66015625 C-7.40082031 1.57894531 -6.39148437 1.49773437 -5.3515625 1.4140625 C-2.80714549 1.09253711 -2.3783836 0.12570738 0 0 Z " fill="#2F2E2F" transform="translate(1038.84765625,1025.90234375)"/>
<path d="M0 0 C1.28132812 0.00902344 2.56265625 0.01804687 3.8828125 0.02734375 C4.87023437 0.03894531 5.85765625 0.05054688 6.875 0.0625 C6.875 0.7225 6.875 1.3825 6.875 2.0625 C1.925 2.3925 -3.025 2.7225 -8.125 3.0625 C-8.455 2.4025 -8.785 1.7425 -9.125 1.0625 C-6.12186252 -0.43906874 -3.33432478 -0.03031204 0 0 Z " fill="#050505" transform="translate(918.125,828.9375)"/>
<path d="M0 0 C2.38912018 0.20451612 4.68168403 0.59034288 7.0078125 1.171875 C7.0078125 1.501875 7.0078125 1.831875 7.0078125 2.171875 C3.33393755 3.02485876 -0.0369268 3.27976971 -3.8046875 3.234375 C-5.26841797 3.22083984 -5.26841797 3.22083984 -6.76171875 3.20703125 C-7.86580078 3.18962891 -7.86580078 3.18962891 -8.9921875 3.171875 C-6.22669161 -0.09175369 -4.26804247 -0.15749234 0 0 Z " fill="#19191A" transform="translate(705.9921875,1023.828125)"/>
<path d="M0 0 C0.99 0 1.98 0 3 0 C1.90931332 3.77545388 1.0916909 6.47043472 -2 9 C-2.33 8.01 -2.66 7.02 -3 6 C-3.66 5.67 -4.32 5.34 -5 5 C-4.01 4.67 -3.02 4.34 -2 4 C-2 3.34 -2 2.68 -2 2 C-1.34 2 -0.68 2 0 2 C0 1.34 0 0.68 0 0 Z " fill="#17181B" transform="translate(967,1314)"/>
<path d="M0 0 C6.08695652 0.54347826 6.08695652 0.54347826 9 2 C9 2.66 9 3.32 9 4 C9.99 4.33 10.98 4.66 12 5 C7.03083364 4.48594831 2.70973649 3.76615118 -2 2 C-1.34 1.34 -0.68 0.68 0 0 Z " fill="#2D2D2D" transform="translate(912,1258)"/>
<path d="M0 0 C0.66 0.66 1.32 1.32 2 2 C1.34 2 0.68 2 0 2 C0 1.34 0 0.68 0 0 Z M-3 2 C-2.01 2 -1.02 2 0 2 C0.33 2.99 0.66 3.98 1 5 C0.01 5 -0.98 5 -2 5 C-1.67 4.34 -1.34 3.68 -1 3 C-1.66 2.67 -2.32 2.34 -3 2 Z M-4 3 C-3.67 3.66 -3.34 4.32 -3 5 C-3.66 4.67 -4.32 4.34 -5 4 C-4.67 3.67 -4.34 3.34 -4 3 Z M-7 5 C-6.34 5.33 -5.68 5.66 -5 6 C-5.33 7.98 -5.66 9.96 -6 12 C-6.66 12 -7.32 12 -8 12 C-8.625 10.1875 -8.625 10.1875 -9 8 C-8.34 7.01 -7.68 6.02 -7 5 Z " fill="#120F0F" transform="translate(1176,1172)"/>
<path d="M0 0 C2.10827055 3.16240582 2.33817465 4.50657469 2.625 8.1875 C2.69976563 9.08855469 2.77453125 9.98960937 2.8515625 10.91796875 C2.90054687 11.60503906 2.94953125 12.29210937 3 13 C2.34 13 1.68 13 1 13 C0.67 12.01 0.34 11.02 0 10 C-0.66 9.67 -1.32 9.34 -2 9 C-1.34 6.03 -0.68 3.06 0 0 Z " fill="#2C2B2A" transform="translate(1244,994)"/>
<path d="M0 0 C0.66 0 1.32 0 2 0 C2.33 3.96 2.66 7.92 3 12 C2.01 12 1.02 12 0 12 C0 8.04 0 4.08 0 0 Z " fill="#262525" transform="translate(1117,884)"/>
<path d="M0 0 C6.6 0.33 13.2 0.66 20 1 C20 1.33 20 1.66 20 2 C13.4 2.33 6.8 2.66 0 3 C0 2.01 0 1.02 0 0 Z " fill="#28292A" transform="translate(879,735)"/>
<path d="M0 0 C0.33 1.32 0.66 2.64 1 4 C-2.65456815 4.75241109 -6.31733897 5.40049704 -10 6 C-2.6 0 -2.6 0 0 0 Z " fill="#151617" transform="translate(931,1328)"/>
<path d="M0 0 C0.66 0.33 1.32 0.66 2 1 C2 1.66 2 2.32 2 3 C0.46875 4.2890625 0.46875 4.2890625 -1.5 5.625 C-2.1496875 6.07101562 -2.799375 6.51703125 -3.46875 6.9765625 C-3.9740625 7.31429687 -4.479375 7.65203125 -5 8 C-5 6.68 -5 5.36 -5 4 C-2.5 1.75 -2.5 1.75 0 0 Z " fill="#1B1A1B" transform="translate(850,748)"/>
<path d="M0 0 C2 2 2 2 2 5 C-2.455 5.495 -2.455 5.495 -7 6 C-6.34 5.67 -5.68 5.34 -5 5 C-5 4.34 -5 3.68 -5 3 C-2.5 1.375 -2.5 1.375 0 0 Z " fill="#181717" transform="translate(952,944)"/>
<path d="M0 0 C0 2.31 0 4.62 0 7 C-1.9375 6.25 -1.9375 6.25 -4 5 C-4.75 2.875 -4.75 2.875 -5 1 C-2 0 -2 0 0 0 Z " fill="#121010" transform="translate(1162,925)"/>
<path d="M0 0 C3.6875 1.375 3.6875 1.375 7 3 C6.01 4.32 5.02 5.64 4 7 C1.69 5.35 -0.62 3.7 -3 2 C-2.01 1.34 -1.02 0.68 0 0 Z " fill="#211F20" transform="translate(1141,913)"/>
<path d="M0 0 C3.31562557 0.55260426 6.15062207 1.16825705 9 3 C9.33 3.99 9.66 4.98 10 6 C6.51329166 4.8905928 3.22515763 3.73662334 0 2 C0 1.34 0 0.68 0 0 Z " fill="#191A1A" transform="translate(839,1352)"/>
<path d="M0 0 C1.32 0 2.64 0 4 0 C3.8125 2.375 3.8125 2.375 3 5 C0.4375 6.3125 0.4375 6.3125 -2 7 C-1.67 6.01 -1.34 5.02 -1 4 C-0.34 4 0.32 4 1 4 C1 3.34 1 2.68 1 2 C0.34 1.67 -0.32 1.34 -1 1 C-0.67 0.67 -0.34 0.34 0 0 Z " fill="#100F0E" transform="translate(1061,1109)"/>
<path d="M0 0 C-1.19126781 2.38253561 -2.38694426 3.12188876 -4.5625 4.625 C-5.20316406 5.07101562 -5.84382812 5.51703125 -6.50390625 5.9765625 C-6.99761719 6.31429687 -7.49132812 6.65203125 -8 7 C-8.66 6.67 -9.32 6.34 -10 6 C-8.90398831 4.99106869 -7.79786082 3.99311775 -6.6875 3 C-6.07261719 2.443125 -5.45773437 1.88625 -4.82421875 1.3125 C-3 0 -3 0 0 0 Z M-12 7 C-11.34 7.33 -10.68 7.66 -10 8 C-10.99 8 -11.98 8 -13 8 C-12.67 7.67 -12.34 7.34 -12 7 Z " fill="#181818" transform="translate(895,912)"/>
<path d="M0 0 C2.31 0 4.62 0 7 0 C7.33 0.66 7.66 1.32 8 2 C2.25 5 2.25 5 0 5 C0 3.35 0 1.7 0 0 Z " fill="#171617" transform="translate(729,861)"/>
<path d="M0 0 C1 3 1 3 0.0625 5.1875 C-0.4634375 6.0846875 -0.4634375 6.0846875 -1 7 C-2.65 6.67 -4.3 6.34 -6 6 C-4 4 -2 2 0 0 Z " fill="#181819" transform="translate(739,769)"/>
<path d="M0 0 C0.66 0 1.32 0 2 0 C5 5.75 5 5.75 5 8 C3.68 8 2.36 8 1 8 C0.67 5.36 0.34 2.72 0 0 Z " fill="#1C1C1C" transform="translate(969,759)"/>
<path d="M0 0 C0.66 0.66 1.32 1.32 2 2 C1.67028521 5.29714793 1.3773161 6.6226839 -1 9 C-1.97812643 5.95694001 -2.04560527 4.0322553 -1 1 C-0.67 0.67 -0.34 0.34 0 0 Z " fill="#1F1D1E" transform="translate(1224,1164)"/>
<path d="M0 0 C1.8871875 0.0309375 1.8871875 0.0309375 3.8125 0.0625 C3.4825 0.7225 3.1525 1.3825 2.8125 2.0625 C1.03515625 2.546875 1.03515625 2.546875 -1.125 2.8125 C-1.83527344 2.91046875 -2.54554688 3.0084375 -3.27734375 3.109375 C-5.1875 3.0625 -5.1875 3.0625 -7.1875 1.0625 C-4.43671116 0.14557039 -2.82801087 -0.04636083 0 0 Z " fill="#313131" transform="translate(690.1875,1023.9375)"/>
<path d="M0 0 C-2 1 -4 2 -6 3 C-7.0828125 3.61875 -7.0828125 3.61875 -8.1875 4.25 C-10 5 -10 5 -13 4 C-11.59248779 3.13083113 -10.1735479 2.28014851 -8.75 1.4375 C-7.96109375 0.96183594 -7.1721875 0.48617187 -6.359375 -0.00390625 C-3.69155375 -1.13022151 -2.65498232 -1.0169313 0 0 Z " fill="#282727" transform="translate(904,812)"/>
<path d="M0 0 C0.66 0.33 1.32 0.66 2 1 C-0.62652025 4.59930552 -2.93963643 7.07666989 -7 9 C-7.66 8.67 -8.32 8.34 -9 8 C-6.03 5.36 -3.06 2.72 0 0 Z " fill="#1A191B" transform="translate(837,732)"/>
<path d="M0 0 C2 3 2 3 1.75 6.625 C1.5025 7.73875 1.255 8.8525 1 10 C0.01 10.495 0.01 10.495 -1 11 C-1.14285714 3.57142857 -1.14285714 3.57142857 0 0 Z " fill="#060606" transform="translate(825,960)"/>
<path d="M0 0 C-0.33 0.99 -0.66 1.98 -1 3 C-5.95 3 -10.9 3 -16 3 C-16 2.67 -16 2.34 -16 2 C-15.22914063 1.93941406 -14.45828125 1.87882813 -13.6640625 1.81640625 C-12.15972656 1.69072266 -12.15972656 1.69072266 -10.625 1.5625 C-9.62726562 1.48128906 -8.62953125 1.40007813 -7.6015625 1.31640625 C-4.67763349 0.96079326 -3.00138805 0 0 0 Z " fill="#171718" transform="translate(930,829)"/>
<path d="M0 0 C3.16115776 1.36983503 3.9927092 1.9890638 6 5 C5.01 5.66 4.02 6.32 3 7 C2.01 6.67 1.02 6.34 0 6 C0.33 5.34 0.66 4.68 1 4 C0.60061233 1.90178785 0.60061233 1.90178785 0 0 Z " fill="#161716" transform="translate(951,736)"/>
<path d="M0 0 C0.66 0.33 1.32 0.66 2 1 C0.95125002 3.62187494 0.35068687 4.79371361 -2.125 6.25 C-2.74375 6.4975 -3.3625 6.745 -4 7 C-4 5.35 -4 3.7 -4 2 C-3.01 2 -2.02 2 -1 2 C-0.67 1.34 -0.34 0.68 0 0 Z " fill="#1A1A1C" transform="translate(946,1340)"/>
<path d="M0 0 C0.33 0 0.66 0 1 0 C1 3.63 1 7.26 1 11 C0.01 11.33 -0.98 11.66 -2 12 C-2 9.69 -2 7.38 -2 5 C-1.34 5 -0.68 5 0 5 C0 3.35 0 1.7 0 0 Z " fill="#151516" transform="translate(826,952)"/>
<path d="M0 0 C1.09570312 0.00902344 2.19140625 0.01804687 3.3203125 0.02734375 C4.16335938 0.03894531 5.00640625 0.05054688 5.875 0.0625 C5.875 0.3925 5.875 0.7225 5.875 1.0625 C3.565 1.0625 1.255 1.0625 -1.125 1.0625 C-1.125 1.7225 -1.125 2.3825 -1.125 3.0625 C-5.125 3.0625 -5.125 3.0625 -8.125 1.0625 C-5.36047967 -0.31976016 -3.0788637 -0.03275387 0 0 Z " fill="#3D3C3C" transform="translate(1137.125,868.9375)"/>
<path d="M0 0 C0 3.16880694 -0.2058242 4.43689172 -2 7 C-4.625 7.75 -4.625 7.75 -7 8 C-6.02133662 6.85373678 -5.04205413 5.70800212 -4.0625 4.5625 C-3.51722656 3.92441406 -2.97195313 3.28632812 -2.41015625 2.62890625 C-1.63204305 1.73008851 -0.84063472 0.84063472 0 0 Z " fill="#2A2829" transform="translate(1168,1177)"/>
<path d="M0 0 C0.66 0.66 1.32 1.32 2 2 C1.625 4.125 1.625 4.125 1 6 C-0.65 6 -2.3 6 -4 6 C-2.84826645 3.53199953 -1.95216435 1.95216435 0 0 Z " fill="#110F10" transform="translate(1196,1139)"/>
<path d="M0 0 C-0.825 0.45375 -1.65 0.9075 -2.5 1.375 C-3.7375 2.179375 -3.7375 2.179375 -5 3 C-5 3.66 -5 4.32 -5 5 C-6.65 5 -8.3 5 -10 5 C-9.01 4.67 -8.02 4.34 -7 4 C-7.33 3.01 -7.66 2.02 -8 1 C-2.25 -1.125 -2.25 -1.125 0 0 Z " fill="#070707" transform="translate(908,1341)"/>
<path d="M0 0 C2.31 0.33 4.62 0.66 7 1 C7 1.66 7 2.32 7 3 C7.99 3.33 8.98 3.66 10 4 C2.25 3.125 2.25 3.125 0 2 C0 1.34 0 0.68 0 0 Z " fill="#1A1B1A" transform="translate(760,1312)"/>
<path d="M0 0 C0.66 0 1.32 0 2 0 C2 3.63 2 7.26 2 11 C1.67 11 1.34 11 1 11 C0.7834375 9.63875 0.7834375 9.63875 0.5625 8.25 C0.07533901 5.13728293 0.07533901 5.13728293 -0.625 2.6875 C-0.74875 2.130625 -0.8725 1.57375 -1 1 C-0.67 0.67 -0.34 0.34 0 0 Z " fill="#070708" transform="translate(691,1207)"/>
<path d="M0 0 C0.66 0.33 1.32 0.66 2 1 C0.25 5.875 0.25 5.875 -2 7 C-2.33 5.35 -2.66 3.7 -3 2 C-2.01 1.34 -1.02 0.68 0 0 Z " fill="#151516" transform="translate(896,1159)"/>
<path d="M0 0 C0.33 0.66 0.66 1.32 1 2 C-1.97 4.475 -1.97 4.475 -5 7 C-5.66 6.67 -6.32 6.34 -7 6 C-7 5.34 -7 4.68 -7 4 C-4.69 2.68 -2.38 1.36 0 0 Z " fill="#19191A" transform="translate(899,1131)"/>
<path d="M0 0 C0.66 0 1.32 0 2 0 C2 2.66666667 2 5.33333333 2 8 C1.01 7.67 0.02 7.34 -1 7 C-0.67 4.69 -0.34 2.38 0 0 Z " fill="#110F0F" transform="translate(1183,952)"/>
<path d="M0 0 C2.97 0.495 2.97 0.495 6 1 C2.375 4 2.375 4 -1 4 C-0.67 2.68 -0.34 1.36 0 0 Z " fill="#060608" transform="translate(887,1361)"/>
<path d="M0 0 C0.6875 1.6875 0.6875 1.6875 1 4 C-1.26153846 8.63076923 -1.26153846 8.63076923 -4 10 C-2.8905928 6.51329166 -1.73662334 3.22515763 0 0 Z " fill="#2F2D2E" transform="translate(1197,1132)"/>
<path d="M0 0 C1.65 0.99 3.3 1.98 5 3 C4.67 3.66 4.34 4.32 4 5 C2.35 5 0.7 5 -1 5 C-0.67 3.35 -0.34 1.7 0 0 Z " fill="#181818" transform="translate(859,1024)"/>
<path d="M0 0 C2.84875378 0.20153707 5.25099253 1.14375177 8 2 C8 2.33 8 2.66 8 3 C4.37 3 0.74 3 -3 3 C-2.01 2.01 -1.02 1.02 0 0 Z " fill="#050505" transform="translate(924,926)"/>
<path d="M0 0 C1.98 0 3.96 0 6 0 C5.34 1.32 4.68 2.64 4 4 C4 3.34 4 2.68 4 2 C2.35 2.66 0.7 3.32 -1 4 C-0.67 2.68 -0.34 1.36 0 0 Z " fill="#0E0B0A" transform="translate(1151,1237)"/>
<path d="M0 0 C0.99 0.33 1.98 0.66 3 1 C1.35 2.65 -0.3 4.3 -2 6 C-2.33 5.01 -2.66 4.02 -3 3 C-2.01 2.01 -1.02 1.02 0 0 Z " fill="#201F1F" transform="translate(1195,1206)"/>
<path d="M0 0 C1.68762851 1.6454378 3.3540349 3.31288577 5 5 C5 5.33 5 5.66 5 6 C3.35 6 1.7 6 0 6 C-0.38218767 4.34385343 -0.71395102 2.67542976 -1 1 C-0.67 0.67 -0.34 0.34 0 0 Z " fill="#090909" transform="translate(813,1172)"/>
<path d="M0 0 C0.75 1.6875 0.75 1.6875 1 4 C-0.9375 6.75 -0.9375 6.75 -3 9 C-2.4140625 2.84765625 -2.4140625 2.84765625 -2 1 C-1.34 0.67 -0.68 0.34 0 0 Z " fill="#323233" transform="translate(680,896)"/>
<path d="M0 0 C0.66 0 1.32 0 2 0 C2.33 2.64 2.66 5.28 3 8 C2.01 7.67 1.02 7.34 0 7 C0 4.69 0 2.38 0 0 Z " fill="#212121" transform="translate(976,776)"/>
<path d="M0 0 C0.66 0.33 1.32 0.66 2 1 C0.35 2.65 -1.3 4.3 -3 6 C-4.32 5.34 -5.64 4.68 -7 4 C-1.7265625 0.77734375 -1.7265625 0.77734375 0 0 Z " fill="#212121" transform="translate(848,725)"/>
</g>
</svg>
